<svg width="443" height="500" viewBox="0 0 443 500" fill="none" xmlns="http://www.w3.org/2000/svg">
<path fill-rule="evenodd" clip-rule="evenodd" d="M221 450C331.457 450 421 360.457 421 250C421 139.543 331.457 50 221 50C110.543 50 21 139.543 21 250C21 360.457 110.543 450 221 450ZM221 420C314.888 420 391 343.888 391 250C391 156.112 314.888 80 221 80C127.112 80 51 156.112 51 250C51 343.888 127.112 420 221 420Z" fill="url(#paint0_linear)"/>
<mask id="mask0" mask-type="alpha" maskUnits="userSpaceOnUse" x="15" y="109" width="428" height="278">
<path d="M64.3281 379.75C64.9271 371.005 65.526 362.56 66.125 354.414C66.724 346.268 67.263 338.362 67.7422 330.695L74.2109 245.883C74.9297 239.414 75.5286 233.544 76.0078 228.273C76.487 222.883 76.8464 217.672 77.0859 212.641C77.4453 207.49 77.7448 202.339 77.9844 197.188C78.3438 191.917 78.7031 186.107 79.0625 179.758C75.1094 179.638 70.9167 179.578 66.4844 179.578C62.1719 179.578 57.6198 179.578 52.8281 179.578H18.1484C16.8307 179.578 15.9922 179.099 15.6328 178.141C15.3932 177.062 15.2734 176.104 15.2734 175.266V174.008L35.0391 122.078L34.8594 121.359C34.8594 120.76 35.2188 120.281 35.9375 119.922C36.776 119.443 38.5729 119.083 41.3281 118.844C57.8594 117.885 73.8516 116.987 89.3047 116.148C104.878 115.19 120.211 114.352 135.305 113.633C150.518 112.914 165.672 112.195 180.766 111.477C195.979 110.758 211.612 110.099 227.664 109.5C229.102 109.5 230.599 109.68 232.156 110.039C233.833 110.398 234.672 111.716 234.672 113.992C234.672 114.232 234.612 114.471 234.492 114.711C234.372 114.951 234.312 115.19 234.312 115.43C232.396 120.341 230.599 125.013 228.922 129.445C227.365 133.878 225.807 138.25 224.25 142.562C222.693 146.875 221.076 151.247 219.398 155.68C217.841 160.112 216.104 164.784 214.188 169.695C214.068 169.815 213.828 170.414 213.469 171.492C213.109 172.451 212.57 173.589 211.852 174.906C211.133 176.104 210.174 177.242 208.977 178.32C207.779 179.398 206.281 179.997 204.484 180.117C203.885 179.997 203.286 179.938 202.688 179.938C202.089 179.938 201.43 179.938 200.711 179.938H152.734C152.135 186.047 151.536 192.516 150.938 199.344C150.458 206.172 149.859 212.82 149.141 219.289L136.023 359.625C135.904 360.703 135.664 361.781 135.305 362.859C135.065 363.938 134.286 364.716 132.969 365.195L82.1172 383.523C80.7995 384.003 79.0625 384.602 76.9062 385.32C74.75 386.039 72.6536 386.398 70.6172 386.398C68.9401 386.398 67.4427 385.979 66.125 385.141C64.9271 384.302 64.3281 382.745 64.3281 380.469V379.75Z" fill="black"/>
<path d="M230.461 371.664C228.065 371.065 226.448 370.167 225.609 368.969C224.771 367.651 224.352 366.214 224.352 364.656C224.352 364.297 224.352 364.057 224.352 363.938C224.471 363.818 224.531 363.578 224.531 363.219C225.49 350.281 226.508 336.745 227.586 322.609C228.784 308.354 230.042 293.919 231.359 279.305C232.677 264.57 233.995 249.896 235.312 235.281C236.63 220.667 237.948 206.471 239.266 192.695H239.086C238.607 192.695 237.229 193.115 234.953 193.953C232.797 194.672 230.281 195.51 227.406 196.469C224.651 197.307 221.836 198.086 218.961 198.805C216.086 199.523 213.75 199.883 211.953 199.883C210.396 199.883 209.258 199.284 208.539 198.086C207.94 196.888 207.641 195.57 207.641 194.133C207.641 193.055 207.82 192.036 208.18 191.078C211.414 181.734 214.768 172.99 218.242 164.844C221.716 156.698 225.19 148.312 228.664 139.688C237.768 134.776 247.232 130.523 257.055 126.93C266.878 123.216 276.76 120.161 286.703 117.766C296.766 115.25 306.768 113.393 316.711 112.195C326.654 110.878 336.297 110.219 345.641 110.219C358.698 110.219 370.977 111.596 382.477 114.352C394.096 117.107 404.159 121.299 412.664 126.93C421.289 132.44 428.057 139.448 432.969 147.953C438 156.339 440.516 166.221 440.516 177.602C440.516 182.513 439.438 187.245 437.281 191.797C435.125 196.349 432.31 200.721 428.836 204.914C425.482 208.987 421.708 212.82 417.516 216.414C413.323 219.888 409.19 223.062 405.117 225.938C410.867 230.13 416.018 233.964 420.57 237.438C425.242 240.792 429.195 244.326 432.43 248.039C435.664 251.753 438.12 255.945 439.797 260.617C441.474 265.169 442.312 270.74 442.312 277.328C442.312 287.391 440.516 297.034 436.922 306.258C433.448 315.362 428.596 323.867 422.367 331.773C416.258 339.56 408.951 346.628 400.445 352.977C392.06 359.326 382.896 364.776 372.953 369.328C363.13 373.76 352.708 377.174 341.688 379.57C330.786 382.086 319.766 383.344 308.625 383.344C304.552 383.344 299.102 382.924 292.273 382.086C285.445 381.247 278.258 380.229 270.711 379.031C263.284 377.953 255.917 376.695 248.609 375.258C241.422 373.94 235.372 372.742 230.461 371.664ZM313.297 174.547C311.021 188.682 309.104 203.057 307.547 217.672C305.99 232.167 304.612 246.302 303.414 260.078C302.336 273.734 301.378 286.732 300.539 299.07C299.701 311.409 298.862 322.43 298.023 332.133C302.815 332.133 307.966 331.893 313.477 331.414C319.107 330.815 324.677 329.857 330.188 328.539C335.698 327.221 341.029 325.544 346.18 323.508C351.451 321.352 356.062 318.716 360.016 315.602C363.969 312.487 367.143 308.833 369.539 304.641C371.935 300.328 373.133 295.417 373.133 289.906C373.133 286.552 372.115 283.617 370.078 281.102C368.042 278.466 365.406 276.25 362.172 274.453C359.057 272.536 355.583 270.979 351.75 269.781C347.917 268.464 344.143 267.445 340.43 266.727C336.836 265.888 333.482 265.289 330.367 264.93C327.372 264.451 325.096 264.091 323.539 263.852C321.862 263.612 320.784 263.013 320.305 262.055C319.826 261.096 319.586 259.898 319.586 258.461C319.586 256.904 320.544 254.568 322.461 251.453C324.378 248.339 327.013 244.086 330.367 238.695L337.914 226.656C341.148 225.458 344.622 223.961 348.336 222.164C352.169 220.367 355.703 218.331 358.938 216.055C362.172 213.659 364.867 211.023 367.023 208.148C369.18 205.154 370.258 201.919 370.258 198.445C370.258 188.622 368.102 181.135 363.789 175.984C359.596 170.714 353.487 168.078 345.461 168.078C336.357 168.078 325.635 170.234 313.297 174.547Z" fill="black"/>
</mask>
<g mask="url(#mask0)">
<path d="M471 0H-29V500H471V0Z" fill="url(#paint1_linear)"/>
</g>
<defs>
<linearGradient id="paint0_linear" x1="221" y1="50" x2="221" y2="450" gradientUnits="userSpaceOnUse">
<stop stop-color="#C70C93"/>
<stop offset="1" stop-color="#740F58"/>
</linearGradient>
<linearGradient id="paint1_linear" x1="471" y1="0" x2="-29" y2="500" gradientUnits="userSpaceOnUse">
<stop stop-color="#C70C93"/>
<stop offset="1" stop-color="#740F58"/>
</linearGradient>
</defs>
</svg>
